<?xml version="1.0" encoding="iso-8859-1"?>
<!-- Generator: Adobe Illustrator 19.0.0, SVG Export Plug-In . SVG Version: 6.00 Build 0)  -->
<svg xmlns="http://www.w3.org/2000/svg" xmlns:xlink="http://www.w3.org/1999/xlink" version="1.1" id="Capa_1" x="0px" y="0px" viewBox="0 0 512.002 512.002" style="enable-background:new 0 0 512.002 512.002;" xml:space="preserve" width="512px" height="512px">
<g>
	<g>
		<path d="M509.073,482.051c-17.463-17.463-45.878-17.463-63.342,0l-4.591,4.591c-7.134,7.135-18.741,7.135-25.876,0l-9.182-9.182    c-7.233-7.234-16.85-11.217-27.08-11.217s-19.847,3.984-27.08,11.217l-9.183,9.182c-7.134,7.135-18.741,7.135-25.876,0    l-9.182-9.182c-14.931-14.931-39.227-14.933-54.16,0l-9.182,9.182c-7.134,7.135-18.741,7.135-25.876,0l-9.182-9.182    c-14.932-14.931-39.228-14.933-54.16,0l-9.183,9.182c-3.456,3.456-8.051,5.359-12.938,5.359c-4.887,0-9.482-1.903-12.937-5.359    l-9.182-9.182c-7.234-7.234-16.851-11.217-27.08-11.217c-10.23,0-19.847,3.984-27.08,11.217l-9.183,9.182    c-3.456,3.456-8.051,5.359-12.938,5.359c-4.887,0-9.482-1.903-12.938-5.36l-4.591-4.591c-3.905-3.906-10.238-3.905-14.142,0.001    c-3.906,3.906-3.905,10.237,0,14.142l4.591,4.591c7.233,7.234,16.85,11.217,27.08,11.217c10.23,0,19.847-3.983,27.079-11.217    l9.183-9.182c7.134-7.135,18.741-7.135,25.876,0l9.182,9.182c7.233,7.234,16.851,11.217,27.08,11.217s19.847-3.983,27.078-11.217    l9.183-9.182c7.134-7.135,18.741-7.135,25.876,0l9.182,9.182c14.931,14.931,39.227,14.933,54.16,0l9.182-9.182    c7.134-7.135,18.741-7.135,25.876,0l9.182,9.182c14.932,14.931,39.228,14.933,54.16,0l9.183-9.182    c3.456-3.456,8.051-5.359,12.938-5.359c4.887,0,9.482,1.903,12.938,5.359l9.182,9.182c7.234,7.234,16.851,11.217,27.08,11.217    c10.23,0,19.847-3.983,27.082-11.216l4.59-4.591c9.666-9.666,25.393-9.666,35.059,0c3.905,3.904,10.237,3.904,14.142,0    C512.979,492.288,512.978,485.956,509.073,482.051z" fill="#FFFFFF"/>
	</g>
</g>
<g>
	<g>
		<path d="M160.081,413.075c-3.905-3.904-10.237-3.904-14.142,0c-3.456,3.456-8.05,5.359-12.938,5.359s-9.482-1.903-12.938-5.359    l-9.182-9.183c-7.234-7.234-16.851-11.217-27.08-11.217c-10.23,0-19.848,3.984-27.081,11.217l-9.182,9.183    c-3.456,3.456-8.05,5.359-12.938,5.359s-9.482-1.903-12.938-5.358l-4.591-4.592c-3.905-3.905-10.236-3.905-14.142-0.001    c-3.905,3.906-3.905,10.237,0,14.142l4.591,4.593c7.233,7.234,16.851,11.217,27.08,11.217s19.847-3.984,27.08-11.217l9.182-9.183    c3.456-3.456,8.05-5.359,12.938-5.359s9.482,1.903,12.938,5.359l9.182,9.183c7.233,7.234,16.851,11.217,27.08,11.217    s19.847-3.984,27.081-11.217C163.987,423.312,163.986,416.98,160.081,413.075z" fill="#FFFFFF"/>
	</g>
</g>
<g>
	<g>
		<path d="M509.071,408.483c-17.463-17.463-45.879-17.462-63.343,0.001l-4.59,4.591c-3.456,3.456-8.05,5.359-12.938,5.359    s-9.482-1.903-12.938-5.359l-9.182-9.183c-7.233-7.234-16.851-11.217-27.08-11.217c-10.229,0-19.847,3.984-27.08,11.217    c-3.906,3.906-3.905,10.238,0,14.143c3.905,3.904,10.237,3.904,14.142,0c3.456-3.456,8.05-5.359,12.938-5.359    s9.482,1.903,12.938,5.359l9.182,9.183c7.234,7.234,16.851,11.217,27.08,11.217s19.847-3.984,27.08-11.218l4.59-4.591    c9.666-9.666,25.393-9.666,35.059,0c3.905,3.904,10.237,3.904,14.142,0C512.977,418.72,512.976,412.388,509.071,408.483z" fill="#FFFFFF"/>
	</g>
</g>
<g>
	<g>
		<path d="M350.5,90.695h-17.583c-5.523,0-10,4.477-10,10c0,5.523,4.477,10,10,10H350.5c5.523,0,10-4.477,10-10    C360.5,95.172,356.023,90.695,350.5,90.695z" fill="#FFFFFF"/>
	</g>
</g>
<g>
	<g>
		<path d="M350.5,42.695h-17.583c-5.523,0-10,4.477-10,10c0,5.523,4.477,10,10,10H350.5c5.523,0,10-4.477,10-10    C360.5,47.172,356.023,42.695,350.5,42.695z" fill="#FFFFFF"/>
	</g>
</g>
<g>
	<g>
		<path d="M350.5,138.695h-17.583c-5.523,0-10,4.477-10,10c0,5.523,4.477,10,10,10H350.5c5.523,0,10-4.477,10-10    C360.5,143.172,356.023,138.695,350.5,138.695z" fill="#FFFFFF"/>
	</g>
</g>
<g>
	<g>
		<path d="M350.5,186.695h-17.583c-5.523,0-10,4.477-10,10c0,5.523,4.477,10,10,10H350.5c5.523,0,10-4.477,10-10    C360.5,191.172,356.023,186.695,350.5,186.695z" fill="#FFFFFF"/>
	</g>
</g>
<g>
	<g>
		<path d="M350.5,234.695h-17.583c-5.523,0-10,4.477-10,10c0,5.523,4.477,10,10,10H350.5c5.523,0,10-4.477,10-10    C360.5,239.172,356.023,234.695,350.5,234.695z" fill="#FFFFFF"/>
	</g>
</g>
<g>
	<g>
		<path d="M303.327,376.858c-4.376-3.368-10.655-2.553-14.024,1.823c-8.027,10.426-20.165,16.405-33.303,16.405    c-23.159,0-42-18.841-42-42s18.841-42,42-42c13.464,0,25.784,6.22,33.801,17.064c3.283,4.442,9.544,5.381,13.986,2.097    c4.441-3.282,5.38-9.544,2.097-13.985c-9.646-13.049-24.089-21.726-39.884-24.335V50.001c0-5.523-4.477-10-10-10s-10,4.477-10,10    v241.904c-29.448,4.797-52,30.4-52,61.182c0,34.187,27.813,62,62,62c19.393,0,37.307-8.822,49.15-24.204    C308.52,386.507,307.703,380.228,303.327,376.858z" fill="#FFFFFF"/>
	</g>
</g>
<g>
	<g>
		<path d="M308,343.086c-5.523,0-10,4.478-10,10v0.148c0,5.522,4.477,10,10,10s10-4.477,10-10v-0.148    C318,347.564,313.523,343.086,308,343.086z" fill="#FFFFFF"/>
	</g>
</g>
<g>
	<g>
		<path d="M306,273.474V50.001c0-27.57-22.43-50-50-50s-50,22.43-50,50v73c0,5.523,4.477,10,10,10s10-4.477,10-10v-73    c0-16.542,13.458-30,30-30s30,13.458,30,30v229.204c0,3.668,2.007,7.041,5.231,8.79C315.145,300.969,330,325.91,330,353.087    c0,40.804-33.196,74-74,74s-74-33.196-74-74c0-27.177,14.855-52.118,38.769-65.092c3.223-1.749,5.231-5.122,5.231-8.79v-55.661    c0-5.523-4.477-10-10-10s-10,4.477-10,10v49.93c-27.289,17.148-44,47.122-44,79.613c0,51.832,42.168,94,94,94    c51.832,0,94-42.168,94-94C350,320.596,333.289,290.622,306,273.474z" fill="#FFFFFF"/>
	</g>
</g>
<g>
	<g>
		<path d="M216,162.501c-5.523,0-10,4.477-10,10v1.167c0,5.523,4.477,10,10,10s10-4.477,10-9.999v-1.168    C226,166.978,221.523,162.501,216,162.501z" fill="#FFFFFF"/>
	</g>
</g>
<g>
</g>
<g>
</g>
<g>
</g>
<g>
</g>
<g>
</g>
<g>
</g>
<g>
</g>
<g>
</g>
<g>
</g>
<g>
</g>
<g>
</g>
<g>
</g>
<g>
</g>
<g>
</g>
<g>
</g>
</svg>
